<svg xmlns="http://www.w3.org/2000/svg" width="12.913" height="14.348" viewBox="0 0 12.913 14.348">
  <g id="Group_9" data-name="Group 9" transform="translate(-3.384)">
    <path id="Path_15" data-name="Path 15" d="M13.893,23.348H11.748V24.62h2.144c.638,0,1.132.326,1.132.606v5.641c0,.28-.495.606-1.132.606h-8.1c-.638,0-1.132-.326-1.132-.606V25.226c0-.28.495-.606,1.132-.606H7.932V23.348H5.788a2.167,2.167,0,0,0-2.4,1.878v5.641a2.167,2.167,0,0,0,2.4,1.878h8.1a2.167,2.167,0,0,0,2.4-1.878V25.226A2.167,2.167,0,0,0,13.893,23.348Z" transform="translate(0 -18.398)" fill="#ffffff"/>
    <path id="Path_16" data-name="Path 16" d="M22.592,3.171a.634.634,0,0,0,.45-.186l.8-.8V8.66a.636.636,0,1,0,1.272,0V2.145l.839.839a.636.636,0,1,0,.9-.9l-1.9-1.9A.633.633,0,0,0,24.5,0h-.01a.633.633,0,0,0-.449.186l-1.9,1.9a.636.636,0,0,0,.45,1.086Z" transform="translate(-14.634)" fill="#ffffff"/>
  </g>
</svg>
